<svg width="55" height="54" viewBox="0 0 55 54" fill="none" xmlns="http://www.w3.org/2000/svg">
<path d="M15.4242 20.2082V20.0886C18.2342 18.9526 19.6691 16.2024 19.6691 11.8977V10.2236C19.6691 3.7068 16.6797 0.59785 9.92373 0.59785H0V42.4471H10.3422C16.8591 42.4471 20.3267 38.9804 20.3267 32.5233V28.9361C20.3257 24.2129 18.7125 21.3441 15.4242 20.2082ZM6.57562 6.57659H9.74435C11.9565 6.57659 13.0925 8.0115 13.0925 10.8813V13.213C13.0925 16.3817 11.7771 17.6373 9.1465 17.6373H6.57562V6.57659ZM13.7501 32.345C13.7501 35.3942 12.6739 36.4693 10.3422 36.4693H6.57562V23.616H9.50521C12.5544 23.616 13.7501 24.8716 13.7501 28.698V32.345ZM24.1531 42.4471H30.7297V0.59785H24.1531V42.4471ZM54.7623 14.1098V10.5226C54.7623 3.76661 51.3544 0 44.9572 0C38.5609 0 35.153 3.76661 35.153 10.5226V32.5233C35.153 39.2783 38.5609 43.0459 44.9572 43.0459C51.3544 43.0459 54.7623 39.2793 54.7623 32.5233V18.832H45.2571V24.8108H48.5454V33.0007C48.5454 35.6911 47.4095 37.0662 45.1375 37.0662C42.8656 37.0662 41.7296 35.6911 41.7296 33.0007V10.1031C41.7296 7.35284 42.8656 5.97774 45.1375 5.97774C47.4095 5.97774 48.5454 7.35284 48.5454 10.1031V14.1088L54.7623 14.1098Z" fill="#040000"></path>
<path d="M24 54H31V47H24V54Z" fill="#040000"></path>
<path d="M17.5 54H37.5V47H17.5V54Z" fill="#040000"></path>
</svg>
