<?xml version="1.0" encoding="utf-8"?>
<!-- Generator: Adobe Illustrator 16.0.0, SVG Export Plug-In . SVG Version: 6.00 Build 0)  -->
<!DOCTYPE svg PUBLIC "-//W3C//DTD SVG 1.1//EN" "http://www.w3.org/Graphics/SVG/1.1/DTD/svg11.dtd">
<svg version="1.1" id="圖層_1" xmlns="http://www.w3.org/2000/svg" xmlns:xlink="http://www.w3.org/1999/xlink" x="0px" y="0px"
	 width="44px" height="60px" viewBox="0 0 44 60" enable-background="new 0 0 44 60" xml:space="preserve">
<path fill-rule="evenodd" clip-rule="evenodd" fill="#FFFFFF" d="M28.439,3.138c-1.821,0-3.307-1.372-3.522-3.138h-5.834
	c-0.216,1.766-1.701,3.138-3.522,3.138S12.253,1.766,12.037,0H0v51.785C0,56.322,3.678,60,8.214,60h27.572
	C40.322,60,44,56.322,44,51.785V0H31.962C31.746,1.766,30.261,3.138,28.439,3.138z M15.561,18.006c-1.97,0-3.567-1.599-3.567-3.571
	c0-1.974,1.597-3.572,3.567-3.572s3.566,1.599,3.566,3.572C19.127,16.407,17.53,18.006,15.561,18.006z M28.439,18.006
	c-1.97,0-3.566-1.599-3.566-3.571c0-1.974,1.597-3.572,3.566-3.572s3.566,1.599,3.566,3.572
	C32.006,16.407,30.409,18.006,28.439,18.006z"/>
</svg>
