<?xml version="1.0" encoding="utf-8"?>
<!-- Generator: Adobe Illustrator 28.0.0, SVG Export Plug-In . SVG Version: 6.00 Build 0)  -->
<svg version="1.1" id="圖層_1" xmlns="http://www.w3.org/2000/svg" xmlns:xlink="http://www.w3.org/1999/xlink" x="0px" y="0px"
	 viewBox="0 0 59.5 34.1" style="enable-background:new 0 0 59.5 34.1;" xml:space="preserve">
<style type="text/css">
	.st0{fill:#F5B331;}
</style>
<g>
	<path class="st0" d="M17.1,19.6v-0.5h1v0.6c0,0.9,0.4,1.3,1.1,1.3s1.1-0.4,1.1-1.3s-0.4-1.5-1.5-2.4c-1.4-1.1-1.8-1.9-1.8-3
		c0-1.5,0.8-2.3,2.2-2.3s2.2,0.9,2.2,2.4v0.4h-1v-0.5c0-0.9-0.4-1.3-1.1-1.3s-1.1,0.4-1.1,1.3c0,0.8,0.4,1.4,1.6,2.3
		c1.3,1.1,1.8,1.9,1.8,3.1c0,1.5-0.8,2.4-2.2,2.4C17.9,22,17.1,21.1,17.1,19.6z"/>
	<path class="st0" d="M22.6,12h2.1c1.5,0,2.2,0.8,2.2,2.4v0.8c0,1.6-0.7,2.4-2.2,2.4h-1.1v4.3h-1.1V12H22.6z M24.8,16.6
		c0.8,0,1.1-0.4,1.1-1.3v-1c0-1-0.4-1.3-1.1-1.3h-1.1v3.6H24.8z"/>
	<path class="st0" d="M30.7,19.8h-2.3L28,21.9h-1l1.8-9.8h1.5l1.8,9.8H31L30.7,19.8z M30.5,18.8l-1-5.5l-1,5.5H30.5z"/>
	<path class="st0" d="M33,19.7v-5.4c0-1.5,0.8-2.3,2.2-2.3s2.2,0.9,2.2,2.3v1h-1v-1.1c0-0.8-0.4-1.3-1.1-1.3c-0.7,0-1.1,0.4-1.1,1.3
		v5.5c0,0.8,0.4,1.3,1.1,1.3c0.7,0,1.1-0.4,1.1-1.3v-1.4h1v1.3c0,1.5-0.8,2.3-2.2,2.3C33.7,22,33,21.1,33,19.7z"/>
	<path class="st0" d="M38.5,12h4v1h-2.9v3.2H42v1h-2.4v3.7h2.9v1h-4V12z"/>
</g>
<g>
	<g>
		<path class="st0" d="M52.3,34.1h-45c-4,0-7.3-3.3-7.3-7.3V7.3C0,3.3,3.3,0,7.3,0h44.9c4,0,7.3,3.3,7.3,7.3v19.5
			C59.6,30.9,56.3,34.1,52.3,34.1z M7.3,1C3.8,1,1,3.8,1,7.3v19.5c0,3.5,2.8,6.3,6.3,6.3h44.9c3.5,0,6.3-2.8,6.3-6.3V7.3
			c0-3.5-2.8-6.3-6.3-6.3H7.3z"/>
	</g>
</g>
<circle class="st0" cx="12.2" cy="12.8" r="0.8"/>
<circle class="st0" cx="12.2" cy="21.3" r="0.8"/>
<circle class="st0" cx="47.3" cy="12.8" r="0.8"/>
<circle class="st0" cx="47.3" cy="21.3" r="0.8"/>
<circle class="st0" cx="51.3" cy="12.8" r="0.8"/>
<circle class="st0" cx="51.3" cy="21.3" r="0.8"/>
<circle class="st0" cx="8.2" cy="12.8" r="0.8"/>
<circle class="st0" cx="8.2" cy="21.3" r="0.8"/>
</svg>
