<?xml version="1.0" encoding="utf-8"?>
<!-- Generator: Adobe Illustrator 28.0.0, SVG Export Plug-In . SVG Version: 6.00 Build 0)  -->
<svg version="1.1" id="圖層_1" xmlns="http://www.w3.org/2000/svg" xmlns:xlink="http://www.w3.org/1999/xlink" x="0px" y="0px"
	 viewBox="0 0 34.1 49.5" style="enable-background:new 0 0 34.1 49.5;" xml:space="preserve">
<style type="text/css">
	.st0{fill:#F5B331;}
</style>
<g>
	<g>
		<path class="st0" d="M0,42.3v-35C0,3.3,3.3,0,7.3,0h19.5c4,0,7.3,3.3,7.3,7.3v34.9c0,4-3.3,7.3-7.3,7.3H7.3
			C3.2,49.6,0,46.3,0,42.3z M33.1,7.3c0-3.5-2.8-6.3-6.3-6.3H7.3C3.8,1,1,3.8,1,7.3v34.9c0,3.5,2.8,6.3,6.3,6.3h19.5
			c3.5,0,6.3-2.8,6.3-6.3V7.3z"/>
	</g>
</g>
<g>
	<path class="st0" d="M15.1,7H19v1h-2.8v3.3h2.3v1h-2.3v4.5h-1.1V7z"/>
</g>
<g>
	<path class="st0" d="M14.8,32.8H17c1.6,0,2.2,0.7,2.2,2.2v0.4c0,1.1-0.4,1.7-1.1,2l0,0c0.9,0.3,1.2,1,1.2,2.1v0.8
		c0,1.5-0.7,2.3-2.3,2.3h-2.3L14.8,32.8L14.8,32.8z M16.8,37c0.9,0,1.3-0.4,1.3-1.3v-0.5c0-1-0.3-1.3-1.1-1.3h-1.1V37H16.8z
		 M17.1,41.6c0.8,0,1.2-0.4,1.2-1.3v-0.8c0-1.1-0.4-1.5-1.4-1.5h-1v3.6H17.1z"/>
</g>
</svg>
