<?xml version="1.0" encoding="utf-8"?>
<!-- Generator: Adobe Illustrator 16.0.0, SVG Export Plug-In . SVG Version: 6.00 Build 0)  -->
<!DOCTYPE svg PUBLIC "-//W3C//DTD SVG 1.1//EN" "http://www.w3.org/Graphics/SVG/1.1/DTD/svg11.dtd">
<svg version="1.1" id="圖層_1" xmlns="http://www.w3.org/2000/svg" xmlns:xlink="http://www.w3.org/1999/xlink" x="0px" y="0px"
	 width="44px" height="60px" viewBox="0 0 44 60" enable-background="new 0 0 44 60" xml:space="preserve">
<path fill-rule="evenodd" clip-rule="evenodd" fill="#FFFFFF" d="M35.786,0H8.214C3.678,0,0,3.678,0,8.214V60h12.037
	c-0.018-0.144-0.043-0.285-0.043-0.434c0-1.973,1.597-3.572,3.567-3.572s3.566,1.6,3.566,3.572c0,0.149-0.026,0.29-0.044,0.434
	h5.834c-0.018-0.144-0.044-0.285-0.044-0.434c0-1.973,1.597-3.572,3.566-3.572s3.566,1.6,3.566,3.572
	c0,0.149-0.026,0.29-0.044,0.434H44V8.214C44,3.678,40.322,0,35.786,0z M15.561,48.006c-1.97,0-3.567-1.6-3.567-3.572
	s1.597-3.572,3.567-3.572s3.566,1.6,3.566,3.572S17.53,48.006,15.561,48.006z M28.439,48.006c-1.97,0-3.566-1.6-3.566-3.572
	s1.597-3.572,3.566-3.572s3.566,1.6,3.566,3.572S30.409,48.006,28.439,48.006z"/>
</svg>
