<?xml version="1.0" encoding="utf-8"?>
<!-- Generator: Adobe Illustrator 16.0.0, SVG Export Plug-In . SVG Version: 6.00 Build 0)  -->
<!DOCTYPE svg PUBLIC "-//W3C//DTD SVG 1.1//EN" "http://www.w3.org/Graphics/SVG/1.1/DTD/svg11.dtd">
<svg version="1.1" id="圖層_1" xmlns="http://www.w3.org/2000/svg" xmlns:xlink="http://www.w3.org/1999/xlink" x="0px" y="0px"
	 width="37.083px" height="18.179px" viewBox="-13.083 2.822 37.083 18.179" enable-background="new -13.083 2.822 37.083 18.179"
	 xml:space="preserve">
<path d="M7,13.5C7,12.672,6.328,12,5.5,12S4,12.672,4,13.5S4.672,15,5.5,15S7,14.328,7,13.5z M16,14.5c0-0.275-0.225-0.5-0.5-0.5h-7
	C8.224,14,8,14.225,8,14.5C8,14.775,8.224,15,8.5,15h7C15.775,15,16,14.775,16,14.5z M20,13.5c0-0.828-0.672-1.5-1.5-1.5
	c-0.828,0-1.5,0.672-1.5,1.5s0.672,1.5,1.5,1.5C19.329,15,20,14.328,20,13.5z M2.702,7H0.5C0.224,7,0,7.224,0,7.5v0.511
	C0,8.804,0.926,9,1.616,9L2.702,7z M22.02,10.168c-0.762-1.413-1.699-3.17-2.684-4.813c-0.787-1.312-1.371-1.938-2.751-2.187
	C15.189,2.919,13.904,2.822,12,2.822S8.81,2.919,7.415,3.169C6.034,3.417,5.45,4.044,4.664,5.356
	C3.683,6.993,2.751,8.738,1.98,10.168C1.293,11.441,1,12.58,1,13.975c0,1.317,0.42,2.414,1,3.816V20c0,0.553,0.448,1,1,1h1.5
	c0.552,0,1-0.447,1-1v-1h13v1c0,0.553,0.448,1,1,1H21c0.553,0,1-0.447,1-1v-2.209c0.58-1.402,1-2.499,1-3.816
	C23,12.58,22.708,11.441,22.02,10.168z M6.379,6.384c0.67-1.117,0.852-1.149,1.39-1.246C9.037,4.911,10.224,4.822,12,4.822
	c1.775,0,2.963,0.089,4.23,0.316c0.539,0.097,0.721,0.129,1.391,1.246c0.408,0.681,0.811,1.388,1.195,2.081
	C17.359,8.685,14.796,9,12,9C8.952,9,6.483,8.664,5.195,8.445C5.577,7.759,5.974,7.059,6.379,6.384z M17.975,17H6.026
	C4.355,17,3,15.646,3,13.975c0-1.642,0.506-2.421,1.184-3.679C5.225,10.501,8.151,11,12,11c3.48,0,6.561-0.455,7.834-0.672
	c0.664,1.23,1.166,2.01,1.166,3.646C21,15.646,19.645,17,17.975,17z M23.5,7C23.775,7,24,7.224,24,7.5v0.511
	C24,8.804,23.075,9,22.383,9l-1.086-2H23.5z"/>
<path d="M-4.361,17.729v2.182L0,15.529l-4.361-4.342v2.182c0,0-7.238,1.169-8.722,7.632C-9.924,17.617-4.361,17.729-4.361,17.729z"
	/>
</svg>
