<?xml version="1.0" encoding="utf-8"?>
<!-- Generator: Adobe Illustrator 28.0.0, SVG Export Plug-In . SVG Version: 6.00 Build 0)  -->
<svg version="1.1" id="圖層_1" xmlns="http://www.w3.org/2000/svg" xmlns:xlink="http://www.w3.org/1999/xlink" x="0px" y="0px"
	 viewBox="0 0 59.5 34.1" style="enable-background:new 0 0 59.5 34.1;" xml:space="preserve">
<style type="text/css">
	.st0{fill:#F5B331;}
</style>
<g>
	<path class="st0" d="M17.5,21.8v-1c0.2,0.1,0.4,0.1,0.6,0.1c0.8,0,1.1-0.4,1.1-1.2v-7.6h1.1v7.6c0,1.5-0.7,2.3-2.1,2.3
		C17.9,21.8,17.7,21.8,17.5,21.8z"/>
	<path class="st0" d="M22.6,19.5v-7.5h1.1v7.6c0,0.9,0.4,1.3,1.1,1.3s1.1-0.4,1.1-1.3v-7.6H27v7.5c0,1.6-0.8,2.4-2.2,2.4
		C23.3,21.9,22.6,21.1,22.6,19.5z"/>
	<path class="st0" d="M29.3,12.1h1.6l1.4,7.8l1.4-7.8h1.6v9.8h-1.1v-8.2l-1.6,8.2h-0.9l-1.6-8.2v8.2h-1v-9.8
		C29.1,12.1,29.3,12.1,29.3,12.1z"/>
	<path class="st0" d="M37.7,12.1h2.1c1.5,0,2.2,0.8,2.2,2.4v0.8c0,1.6-0.7,2.4-2.2,2.4h-1.1v4.2h-1.1L37.7,12.1L37.7,12.1z
		 M39.9,16.6c0.8,0,1.1-0.4,1.1-1.3v-1c0-1-0.4-1.3-1.1-1.3h-1.1v3.6H39.9z"/>
</g>
<g>
	<g>
		<path class="st0" d="M52.3,34.1h-45c-4,0-7.3-3.3-7.3-7.3V7.3C0,3.3,3.3,0,7.3,0h44.9c4,0,7.3,3.3,7.3,7.3v19.5
			C59.6,30.9,56.3,34.1,52.3,34.1z M7.3,1C3.8,1,1,3.8,1,7.3v19.5c0,3.5,2.8,6.3,6.3,6.3h44.9c3.5,0,6.3-2.8,6.3-6.3V7.3
			c0-3.5-2.8-6.3-6.3-6.3H7.3z"/>
	</g>
</g>
</svg>
