<?xml version="1.0" encoding="utf-8"?>
<!-- Generator: Adobe Illustrator 16.0.0, SVG Export Plug-In . SVG Version: 6.00 Build 0)  -->
<!DOCTYPE svg PUBLIC "-//W3C//DTD SVG 1.1//EN" "http://www.w3.org/Graphics/SVG/1.1/DTD/svg11.dtd">
<svg version="1.1" id="圖層_1" xmlns="http://www.w3.org/2000/svg" xmlns:xlink="http://www.w3.org/1999/xlink" x="0px" y="0px"
	 width="201.477px" height="53.596px" viewBox="0 0 201.477 53.596" enable-background="new 0 0 201.477 53.596"
	 xml:space="preserve">
<path fill="#040000" d="M15.424,20.208v-0.12c2.81-1.136,4.245-3.886,4.245-8.19v-1.674c0-6.517-2.989-9.626-9.745-9.626H0v41.85
	h10.342c6.517,0,9.984-3.467,9.984-9.924v-3.588C20.326,24.213,18.712,21.344,15.424,20.208z M6.576,6.577h3.168
	c2.212,0,3.348,1.435,3.348,4.305v2.332c0,3.169-1.315,4.424-3.946,4.424H6.576V6.577z M13.75,32.346
	c0,3.049-1.076,4.123-3.408,4.123H6.576V23.616h2.93c3.049,0,4.245,1.255,4.245,5.081V32.346z M24.153,42.447h6.576V0.598h-6.576
	V42.447z M54.762,14.11v-3.587C54.762,3.767,51.354,0,44.957,0c-6.396,0-9.805,3.767-9.805,10.522v22.001
	c0,6.755,3.408,10.522,9.805,10.522c6.397,0,9.805-3.767,9.805-10.522V18.832h-9.504v5.979h3.287V33
	c0,2.691-1.135,4.066-3.407,4.066S41.729,35.691,41.729,33V10.103c0-2.75,1.136-4.125,3.408-4.125s3.407,1.375,3.407,4.125v4.006
	L54.762,14.11z"/>
<path fill="#040000" d="M24,53.596h7v-7h-7V53.596z"/>
<g>
	<path fill-rule="evenodd" clip-rule="evenodd" fill="none" d="M58.984,47.596h18v6h-18V47.596z"/>
	<path fill="none" d="M86.399,43.603c6.479,0,9.96-3.78,9.96-10.68c0-2.64-0.541-4.92-1.62-6.899c-1.021-1.98-2.94-4.2-5.7-6.6
		c-2.22-1.92-3.72-3.541-4.56-4.801s-1.261-2.699-1.261-4.199c0-2.7,1.141-4.02,3.361-4.02c2.219,0,3.299,1.379,3.299,4.14v2.159
		h6.24v-1.739c0-6.78-3.301-10.56-9.6-10.56c-6.42,0-9.84,3.779-9.84,10.439c0,2.46,0.54,4.619,1.62,6.6
		c1.14,1.98,3.06,4.141,5.76,6.54c2.22,1.919,3.72,3.54,4.499,4.859c0.841,1.32,1.261,2.82,1.261,4.56c0,2.82-1.14,4.2-3.479,4.2
		c-2.28,0-3.42-1.38-3.42-4.08v-2.88h-6.24v2.4C76.68,39.822,79.979,43.603,86.399,43.603z"/>
	<path fill="none" d="M111.838,43.002V7.004h6.9v-6H98.339v6h6.899v35.998H111.838z"/>
	<path fill="none" d="M121.679,33.043c0,6.779,3.42,10.56,9.84,10.56s9.839-3.78,9.839-10.56V1.004h-6.359v32.519
		c0,2.7-1.14,4.08-3.359,4.08c-2.221,0-3.359-1.38-3.359-4.08V1.004h-6.601V33.043z"/>
	<path fill="none" d="M156.118,43.002c6.54,0,9.839-3.479,9.839-10.379V11.384c0-6.899-3.299-10.38-9.839-10.38h-10.079v41.998
		H156.118z M152.639,7.004h3.359c2.22,0,3.359,1.38,3.359,4.08v21.839c0,2.7-1.14,4.079-3.359,4.079h-3.359V7.004z"/>
	<path fill="none" d="M176.998,43.002V1.004h-6.6v41.998H176.998z"/>
	<path fill="none" d="M181.438,33.043c0,6.72,3.539,10.56,10.02,10.56c6.479,0,10.02-3.84,10.02-10.56V10.964
		c0-6.72-3.54-10.56-10.02-10.56c-6.48,0-10.02,3.84-10.02,10.56V33.043z M194.877,33.463c0,2.76-1.141,4.14-3.42,4.14
		c-2.28,0-3.42-1.38-3.42-4.14V10.544c0-2.761,1.14-4.14,3.42-4.14c2.279,0,3.42,1.379,3.42,4.14V33.463z"/>
</g>
<g>
	<path fill-rule="evenodd" clip-rule="evenodd" fill="#F5B331" d="M55,47.596h18v6H55V47.596z"/>
	<path fill="#F5B331" d="M82.415,43.603c6.479,0,9.96-3.78,9.96-10.68c0-2.64-0.541-4.92-1.62-6.899c-1.021-1.98-2.94-4.2-5.7-6.6
		c-2.22-1.92-3.72-3.541-4.56-4.801s-1.261-2.699-1.261-4.199c0-2.7,1.141-4.02,3.361-4.02c2.219,0,3.299,1.379,3.299,4.14v2.159
		h6.24v-1.739c0-6.78-3.301-10.56-9.6-10.56c-6.42,0-9.84,3.779-9.84,10.439c0,2.46,0.54,4.619,1.62,6.6
		c1.14,1.98,3.06,4.141,5.76,6.54c2.22,1.919,3.72,3.54,4.499,4.859c0.841,1.32,1.261,2.82,1.261,4.56c0,2.82-1.14,4.2-3.479,4.2
		c-2.28,0-3.42-1.38-3.42-4.08v-2.88h-6.24v2.4C72.695,39.822,75.995,43.603,82.415,43.603z"/>
	<path fill="#F5B331" d="M107.854,43.002V7.004h6.9v-6H94.354v6h6.899v35.998H107.854z"/>
	<path fill="#F5B331" d="M117.694,33.043c0,6.779,3.42,10.56,9.84,10.56s9.839-3.78,9.839-10.56V1.004h-6.359v32.519
		c0,2.7-1.14,4.08-3.359,4.08c-2.221,0-3.359-1.38-3.359-4.08V1.004h-6.601V33.043z"/>
	<path fill="#F5B331" d="M152.134,43.002c6.54,0,9.839-3.479,9.839-10.379V11.384c0-6.899-3.299-10.38-9.839-10.38h-10.079v41.998
		H152.134z M148.654,7.004h3.359c2.22,0,3.359,1.38,3.359,4.08v21.839c0,2.7-1.14,4.079-3.359,4.079h-3.359V7.004z"/>
	<path fill="#F5B331" d="M173.014,43.002V1.004h-6.6v41.998H173.014z"/>
	<path fill="#F5B331" d="M177.453,33.043c0,6.72,3.539,10.56,10.02,10.56c6.479,0,10.02-3.84,10.02-10.56V10.964
		c0-6.72-3.54-10.56-10.02-10.56c-6.48,0-10.02,3.84-10.02,10.56V33.043z M190.893,33.463c0,2.76-1.141,4.14-3.42,4.14
		c-2.28,0-3.42-1.38-3.42-4.14V10.544c0-2.761,1.14-4.14,3.42-4.14c2.279,0,3.42,1.379,3.42,4.14V33.463z"/>
</g>
</svg>
