<?xml version="1.0" encoding="utf-8"?>
<!-- Generator: Adobe Illustrator 28.0.0, SVG Export Plug-In . SVG Version: 6.00 Build 0)  -->
<svg version="1.1" id="圖層_1" xmlns="http://www.w3.org/2000/svg" xmlns:xlink="http://www.w3.org/1999/xlink" x="0px" y="0px"
	 viewBox="0 0 161.9 161.9" style="enable-background:new 0 0 161.9 161.9;" xml:space="preserve">
<style type="text/css">
	.st0{fill-rule:evenodd;clip-rule:evenodd;fill:#F5B331;}
	.st1{enable-background:new    ;}
	.st2{fill:#F5B331;}
</style>
<g>
	<g>
		<path class="st0" d="M81,0C36.2,0,0,36.2,0,81s36.2,81,81,81s81-36.2,81-81S125.7,0,81,0z M81,159.8c-43.3,0-78.3-35.3-78.3-78.8
			S37.7,2.1,81,2.1s78.3,35.3,78.3,78.8S124.2,159.8,81,159.8z M81,60.7c-11.2,0-20.2,9.1-20.2,20.2s9.1,20.2,20.2,20.2
			s20.2-9.1,20.2-20.2S92.1,60.7,81,60.7z"/>
	</g>
</g>
<g>
	<g class="st1">
		<path class="st2" d="M76.6,14.6h9.6v3.3h-6v6.4h4.7v3.3h-4.7v10.1h-3.6V14.6z"/>
	</g>
	<g class="st1">
		<path class="st2" d="M17.1,68.6h3.6v19.8h6v3.3h-9.6V68.6z"/>
	</g>
	<g class="st1">
		<path class="st2" d="M134.6,68.6h5.4c3.8,0,5.4,1.7,5.4,5.3v1.4c0,2.4-0.8,3.9-2.4,4.6V80c1.8,0.6,2.4,2.3,2.4,4.9V89
			c0,1.1,0,1.9,0.4,2.8h-3.7c-0.2-0.6-0.3-1-0.3-2.8v-4.2c0-2.1-0.6-2.8-2.3-2.8h-1.3v9.9h-3.6L134.6,68.6L134.6,68.6z M139.6,78.5
			c1.4,0,2.2-0.6,2.2-2.4v-1.8c0-1.7-0.6-2.4-1.8-2.4h-1.6v6.6C138.4,78.5,139.6,78.5,139.6,78.5z"/>
	</g>
	<g class="st1">
		<path class="st2" d="M75.6,123.6h5.5c3.8,0,5.4,1.7,5.4,5.3v0.9c0,2.4-0.7,3.9-2.3,4.5v0.1c1.9,0.7,2.7,2.4,2.7,4.8v2
			c0,3.6-1.9,5.5-5.5,5.5h-5.7L75.6,123.6L75.6,123.6z M80.7,133c1.4,0,2.2-0.6,2.2-2.4v-1.3c0-1.7-0.6-2.4-1.8-2.4h-1.7v6.1H80.7z
			 M81.3,143.4c1.2,0,1.9-0.6,1.9-2.3v-2c0-2.1-0.7-2.8-2.3-2.8h-1.6v7.1H81.3z"/>
	</g>
</g>
</svg>
