<?xml version="1.0" encoding="utf-8"?>
<!-- Generator: Adobe Illustrator 16.0.0, SVG Export Plug-In . SVG Version: 6.00 Build 0)  -->
<!DOCTYPE svg PUBLIC "-//W3C//DTD SVG 1.1//EN" "http://www.w3.org/Graphics/SVG/1.1/DTD/svg11.dtd">
<svg version="1.1" id="圖層_1" xmlns="http://www.w3.org/2000/svg" xmlns:xlink="http://www.w3.org/1999/xlink" x="0px" y="0px"
	 width="161.92px" height="161.92px" viewBox="0 0 161.92 161.92" enable-background="new 0 0 161.92 161.92" xml:space="preserve">
<g>
	<g>
		<path fill-rule="evenodd" clip-rule="evenodd" fill="#FFFFFF" d="M80.96,0C36.247,0,0,36.247,0,80.96s36.247,80.96,80.96,80.96
			s80.96-36.247,80.96-80.96S125.673,0,80.96,0z M80.96,121.44c-22.356,0-40.48-18.124-40.48-40.48s18.124-40.48,40.48-40.48
			s40.48,18.124,40.48,40.48S103.316,121.44,80.96,121.44z M80.96,60.72c-11.178,0-20.24,9.062-20.24,20.24
			c0,11.178,9.062,20.24,20.24,20.24c11.178,0,20.24-9.063,20.24-20.24C101.2,69.781,92.138,60.72,80.96,60.72z"/>
	</g>
</g>
</svg>
