<?xml version="1.0" encoding="utf-8"?>
<!-- Generator: Adobe Illustrator 16.0.0, SVG Export Plug-In . SVG Version: 6.00 Build 0)  -->
<!DOCTYPE svg PUBLIC "-//W3C//DTD SVG 1.1//EN" "http://www.w3.org/Graphics/SVG/1.1/DTD/svg11.dtd">
<svg version="1.1" id="圖層_1" xmlns="http://www.w3.org/2000/svg" xmlns:xlink="http://www.w3.org/1999/xlink" x="0px" y="0px"
	 width="177.333px" height="124.971px" viewBox="0 0 177.333 124.971" enable-background="new 0 0 177.333 124.971"
	 xml:space="preserve">
<path fill-rule="evenodd" clip-rule="evenodd" fill="#FFFFFF" d="M151.569,0l-12.582,12.499c2.021,2.034,3.903,4.203,5.667,6.468
	l-29.187,16.879l-6.545-11.349H67.41l-6.045,10.482L32.99,18.569c1.675-2.121,3.454-4.155,5.356-6.07L25.763,0
	C9.84,16.029,0,38.107,0,62.485c0,24.378,9.84,46.456,25.763,62.485l12.583-12.499c-2.185-2.199-4.215-4.552-6.099-7.021
	L62.51,87.978l4.899,8.495h41.513l5.149-8.929l31.014,17.906c-1.884,2.47-3.913,4.821-6.099,7.021l12.582,12.499
	c15.923-16.029,25.764-38.107,25.764-62.485C177.333,38.107,167.492,16.029,151.569,0z M23.221,89.878
	c-3.533-8.428-5.488-17.681-5.488-27.393c0-10.118,2.135-19.731,5.953-28.439l28.658,16.573l-5.69,9.866l6.864,11.901L23.221,89.878
	z M96.469,74.881H79.863l-8.302-14.396l8.302-14.396h16.606l8.303,14.396L96.469,74.881z M123.064,71.953l6.614-11.468l-5.189-8.999
	l29.364-16.983c3.692,8.586,5.747,18.042,5.747,27.981c0,9.712-1.955,18.965-5.488,27.394L123.064,71.953z"/>
</svg>
