<?xml version="1.0" encoding="utf-8"?>
<!-- Generator: Adobe Illustrator 28.0.0, SVG Export Plug-In . SVG Version: 6.00 Build 0)  -->
<svg version="1.1" id="圖層_1" xmlns="http://www.w3.org/2000/svg" xmlns:xlink="http://www.w3.org/1999/xlink" x="0px" y="0px"
	 viewBox="0 0 44 60" style="enable-background:new 0 0 44 60;" xml:space="preserve">
<style type="text/css">
	.st0{fill-rule:evenodd;clip-rule:evenodd;fill:#F5B331;}
</style>
<path class="st0" d="M28.4,3.1c-1.8,0-3.3-1.4-3.5-3.1h-5.8c-0.2,1.8-1.7,3.1-3.5,3.1S12.3,1.8,12,0H0v51.8C0,56.3,3.7,60,8.2,60
	h27.6c4.5,0,8.2-3.7,8.2-8.2V0H32C31.7,1.8,30.3,3.1,28.4,3.1z M15.6,18c-2,0-3.6-1.6-3.6-3.6c0-2,1.6-3.6,3.6-3.6s3.6,1.6,3.6,3.6
	C19.1,16.4,17.5,18,15.6,18z M28.4,18c-2,0-3.6-1.6-3.6-3.6c0-2,1.6-3.6,3.6-3.6s3.6,1.6,3.6,3.6C32,16.4,30.4,18,28.4,18z"/>
</svg>
