<?xml version="1.0" encoding="utf-8"?>
<!-- Generator: Adobe Illustrator 28.0.0, SVG Export Plug-In . SVG Version: 6.00 Build 0)  -->
<svg version="1.1" id="圖層_1" xmlns="http://www.w3.org/2000/svg" xmlns:xlink="http://www.w3.org/1999/xlink" x="0px" y="0px"
	 viewBox="0 0 34.1 49.5" style="enable-background:new 0 0 34.1 49.5;" xml:space="preserve">
<style type="text/css">
	.st0{fill:#F5B331;}
</style>
<g>
	<g>
		<path class="st0" d="M0,42.3v-35C0,3.3,3.3,0,7.3,0h19.5c4,0,7.3,3.3,7.3,7.3v34.9c0,4-3.3,7.3-7.3,7.3H7.3
			C3.2,49.6,0,46.3,0,42.3z M33.1,7.3c0-3.5-2.8-6.3-6.3-6.3H7.3C3.8,1,1,3.8,1,7.3v34.9c0,3.5,2.8,6.3,6.3,6.3h19.5
			c3.5,0,6.3-2.8,6.3-6.3V7.3z"/>
	</g>
</g>
<g>
	<path class="st0" d="M13.4,7h1.1l1,8.3l1-8.3h1.2l1,8.3l1-8.3h1l-1.2,9.8h-1.4l-1-7.6l-1,7.6h-1.5L13.4,7z"/>
</g>
<g>
	<path class="st0" d="M14.8,40.4v-0.5h1v0.6c0,0.9,0.4,1.3,1.1,1.3c0.7,0,1.1-0.4,1.1-1.3c0-0.9-0.4-1.5-1.5-2.4
		c-1.4-1.1-1.8-1.9-1.8-3c0-1.5,0.8-2.3,2.2-2.3s2.2,0.9,2.2,2.4v0.4h-1V35c0-0.9-0.4-1.3-1.1-1.3c-0.7,0-1.1,0.4-1.1,1.3
		c0,0.8,0.4,1.4,1.6,2.3c1.3,1.1,1.8,1.9,1.8,3.1c0,1.5-0.8,2.4-2.2,2.4C15.6,42.7,14.8,41.9,14.8,40.4z"/>
</g>
</svg>
