<?xml version="1.0" encoding="utf-8"?>
<!-- Generator: Adobe Illustrator 28.0.0, SVG Export Plug-In . SVG Version: 6.00 Build 0)  -->
<svg version="1.1" id="圖層_1" xmlns="http://www.w3.org/2000/svg" xmlns:xlink="http://www.w3.org/1999/xlink" x="0px" y="0px"
	 viewBox="0 0 59.5 34.1" style="enable-background:new 0 0 59.5 34.1;" xml:space="preserve">
<style type="text/css">
	.st0{fill:#F5B331;}
</style>
<g>
	<g>
		<path class="st0" d="M52.3,34.1h-45c-4,0-7.3-3.3-7.3-7.3V7.3C0,3.3,3.3,0,7.3,0h44.9c4,0,7.3,3.3,7.3,7.3v19.5
			C59.6,30.9,56.3,34.1,52.3,34.1z M7.3,1C3.8,1,1,3.8,1,7.3v19.5c0,3.5,2.8,6.3,6.3,6.3h44.9c3.5,0,6.3-2.8,6.3-6.3V7.3
			c0-3.5-2.8-6.3-6.3-6.3H7.3z"/>
	</g>
</g>
<g>
	<path class="st0" d="M11.2,12.1h1.1v8.8h2.8v1h-3.9V12.1z"/>
</g>
<g>
	<path class="st0" d="M44.1,12.1h2.1c1.6,0,2.2,0.7,2.2,2.2v0.6c0,1.1-0.3,1.7-1.1,2v0c0.8,0.2,1.1,0.9,1.1,2v1.8
		c0,0.4,0,0.8,0.1,1.2h-1.1c-0.1-0.3-0.1-0.5-0.1-1.2v-1.8c0-1.1-0.4-1.4-1.3-1.4h-0.9v4.4h-1.1V12.1z M46,16.5
		c0.9,0,1.3-0.4,1.3-1.3v-0.7c0-1-0.3-1.3-1.1-1.3h-1v3.4H46z"/>
</g>
</svg>
