<?xml version="1.0" encoding="utf-8"?>
<!-- Generator: Adobe Illustrator 28.0.0, SVG Export Plug-In . SVG Version: 6.00 Build 0)  -->
<svg version="1.1" id="圖層_1" xmlns="http://www.w3.org/2000/svg" xmlns:xlink="http://www.w3.org/1999/xlink" x="0px" y="0px"
	 viewBox="0 0 59.5 34.1" style="enable-background:new 0 0 59.5 34.1;" xml:space="preserve">
<style type="text/css">
	.st0{fill:#F5B331;}
</style>
<g>
	<g>
		<path class="st0" d="M52.3,34.1h-45c-4,0-7.3-3.3-7.3-7.3V7.3C0,3.3,3.3,0,7.3,0h44.9c4,0,7.3,3.3,7.3,7.3v19.5
			C59.6,30.9,56.3,34.1,52.3,34.1z M7.3,1C3.8,1,1,3.8,1,7.3v19.5c0,3.5,2.8,6.3,6.3,6.3h44.9c3.5,0,6.3-2.8,6.3-6.3V7.3
			c0-3.5-2.8-6.3-6.3-6.3H7.3z"/>
	</g>
</g>
<circle class="st0" cx="12.2" cy="12.8" r="0.8"/>
<circle class="st0" cx="12.2" cy="21.3" r="0.8"/>
<circle class="st0" cx="47.3" cy="12.8" r="0.8"/>
<circle class="st0" cx="47.3" cy="21.3" r="0.8"/>
<circle class="st0" cx="51.3" cy="12.8" r="0.8"/>
<circle class="st0" cx="51.3" cy="21.3" r="0.8"/>
<circle class="st0" cx="8.2" cy="12.8" r="0.8"/>
<circle class="st0" cx="8.2" cy="21.3" r="0.8"/>
<g>
	<path class="st0" d="M19.6,19.7v-0.5h1v0.6c0,0.9,0.4,1.3,1.1,1.3c0.7,0,1.1-0.4,1.1-1.3c0-0.9-0.4-1.5-1.5-2.4
		c-1.4-1.1-1.8-1.9-1.8-3c0-1.5,0.8-2.3,2.2-2.3c1.4,0,2.2,0.9,2.2,2.4v0.4h-1v-0.5c0-0.9-0.4-1.3-1.1-1.3c-0.7,0-1.1,0.4-1.1,1.3
		c0,0.8,0.4,1.4,1.6,2.3c1.3,1.1,1.8,1.9,1.8,3.1c0,1.5-0.8,2.4-2.2,2.4C20.3,22.1,19.6,21.2,19.6,19.7z"/>
	<path class="st0" d="M26.3,13.1h-1.7v-1h4.6v1h-1.7V22h-1.1V13.1z"/>
	<path class="st0" d="M29.8,19.7v-5.3c0-1.6,0.8-2.4,2.2-2.4c1.5,0,2.3,0.9,2.3,2.4v5.3c0,1.6-0.8,2.4-2.3,2.4
		C30.6,22.1,29.8,21.2,29.8,19.7z M33.2,19.7v-5.4c0-0.9-0.4-1.3-1.2-1.3c-0.7,0-1.1,0.4-1.1,1.3v5.4c0,0.9,0.4,1.4,1.1,1.4
		C32.8,21.1,33.2,20.7,33.2,19.7z"/>
	<path class="st0" d="M35.6,12.1h2.1c1.5,0,2.2,0.8,2.2,2.4v0.8c0,1.6-0.7,2.4-2.2,2.4h-1.1V22h-1.1V12.1z M37.7,16.7
		c0.8,0,1.1-0.4,1.1-1.3v-1c0-1-0.3-1.3-1.1-1.3h-1.1v3.6H37.7z"/>
</g>
</svg>
