<?xml version="1.0" encoding="utf-8"?>
<!-- Generator: Adobe Illustrator 28.0.0, SVG Export Plug-In . SVG Version: 6.00 Build 0)  -->
<svg version="1.1" id="圖層_1" xmlns="http://www.w3.org/2000/svg" xmlns:xlink="http://www.w3.org/1999/xlink" x="0px" y="0px"
	 viewBox="0 0 44 60" style="enable-background:new 0 0 44 60;" xml:space="preserve">
<style type="text/css">
	.st0{fill-rule:evenodd;clip-rule:evenodd;fill:#F5B331;}
</style>
<path class="st0" d="M35.8,0H8.2C3.7,0,0,3.7,0,8.2V60h12c0-0.1,0-0.3,0-0.4c0-2,1.6-3.6,3.6-3.6s3.6,1.6,3.6,3.6c0,0.1,0,0.3,0,0.4
	h5.8c0-0.1,0-0.3,0-0.4c0-2,1.6-3.6,3.6-3.6s3.6,1.6,3.6,3.6c0,0.1,0,0.3,0,0.4h12V8.2C44,3.7,40.3,0,35.8,0z M15.6,48
	c-2,0-3.6-1.6-3.6-3.6s1.6-3.6,3.6-3.6s3.6,1.6,3.6,3.6S17.5,48,15.6,48z M28.4,48c-2,0-3.6-1.6-3.6-3.6s1.6-3.6,3.6-3.6
	s3.6,1.6,3.6,3.6S30.4,48,28.4,48z"/>
</svg>
