<?xml version="1.0" encoding="utf-8"?>
<!-- Generator: Adobe Illustrator 28.0.0, SVG Export Plug-In . SVG Version: 6.00 Build 0)  -->
<svg version="1.1" id="圖層_1" xmlns="http://www.w3.org/2000/svg" xmlns:xlink="http://www.w3.org/1999/xlink" x="0px" y="0px"
	 viewBox="0 0 201.5 53.6" style="enable-background:new 0 0 201.5 53.6;" xml:space="preserve">
<style type="text/css">
	.st0{fill:#FFFFFF;}
	.st1{fill:none;}
	.st2{fill-rule:evenodd;clip-rule:evenodd;fill:#F5B331;}
	.st3{fill:#F5B331;}
</style>
<path class="st0" d="M15.4,20.2v-0.1c2.8-1.1,4.2-3.9,4.2-8.2v-1.7c0-6.5-3-9.6-9.7-9.6H0v41.8h10.3c6.5,0,10-3.5,10-9.9v-3.6
	C20.3,24.2,18.7,21.3,15.4,20.2z M6.6,6.6h3.2c2.2,0,3.3,1.4,3.3,4.3v2.3c0,3.2-1.3,4.4-3.9,4.4H6.6V6.6z M13.8,32.3
	c0,3-1.1,4.1-3.4,4.1H6.6V23.6h2.9c3,0,4.2,1.3,4.2,5.1L13.8,32.3L13.8,32.3z M24.2,42.4h6.6V0.6h-6.6V42.4z M54.8,14.1v-3.6
	C54.8,3.8,51.4,0,45,0c-6.4,0-9.8,3.8-9.8,10.5v22c0,6.8,3.4,10.5,9.8,10.5s9.8-3.8,9.8-10.5V18.8h-9.5v6h3.3V33
	c0,2.7-1.1,4.1-3.4,4.1s-3.4-1.4-3.4-4.1V10.1c0-2.8,1.1-4.1,3.4-4.1s3.4,1.4,3.4,4.1v4L54.8,14.1z"/>
<path class="st0" d="M24,53.6h7v-7h-7V53.6z"/>
<g>
	<path class="st1" d="M59,47.6h18v6H59V47.6z"/>
	<path class="st1" d="M86.4,43.6c6.5,0,10-3.8,10-10.7c0-2.6-0.5-4.9-1.6-6.9c-1-2-2.9-4.2-5.7-6.6c-2.2-1.9-3.7-3.5-4.6-4.8
		s-1.3-2.7-1.3-4.2c0-2.7,1.1-4,3.4-4c2.2,0,3.3,1.4,3.3,4.1v2.2h6.2V11c0-6.8-3.3-10.6-9.6-10.6c-6.4,0-9.8,3.8-9.8,10.4
		c0,2.5,0.5,4.6,1.6,6.6c1.1,2,3.1,4.1,5.8,6.5c2.2,1.9,3.7,3.5,4.5,4.9c0.8,1.3,1.3,2.8,1.3,4.6c0,2.8-1.1,4.2-3.5,4.2
		c-2.3,0-3.4-1.4-3.4-4.1v-2.9h-6.2V33C76.7,39.8,80,43.6,86.4,43.6z"/>
	<path class="st1" d="M111.8,43V7h6.9V1H98.3v6h6.9v36C105.2,43,111.8,43,111.8,43z"/>
	<path class="st1" d="M121.7,33c0,6.8,3.4,10.6,9.8,10.6s9.8-3.8,9.8-10.6V1H135v32.5c0,2.7-1.1,4.1-3.4,4.1c-2.2,0-3.4-1.4-3.4-4.1
		V1h-6.6L121.7,33L121.7,33z"/>
	<path class="st1" d="M156.1,43c6.5,0,9.8-3.5,9.8-10.4V11.4c0-6.9-3.3-10.4-9.8-10.4H146v42H156.1z M152.6,7h3.4
		c2.2,0,3.4,1.4,3.4,4.1v21.8c0,2.7-1.1,4.1-3.4,4.1h-3.4V7z"/>
	<path class="st1" d="M177,43V1h-6.6v42C170.4,43,177,43,177,43z"/>
	<path class="st1" d="M181.4,33c0,6.7,3.5,10.6,10,10.6c6.5,0,10-3.8,10-10.6V11c0-6.7-3.5-10.6-10-10.6c-6.5,0-10,3.8-10,10.6V33z
		 M194.9,33.5c0,2.8-1.1,4.1-3.4,4.1c-2.3,0-3.4-1.4-3.4-4.1V10.5c0-2.8,1.1-4.1,3.4-4.1c2.3,0,3.4,1.4,3.4,4.1V33.5z"/>
</g>
<g>
	<path class="st2" d="M55,47.6h18v6H55V47.6z"/>
	<path class="st3" d="M82.4,43.6c6.5,0,10-3.8,10-10.7c0-2.6-0.5-4.9-1.6-6.9c-1-2-2.9-4.2-5.7-6.6c-2.2-1.9-3.7-3.5-4.6-4.8
		s-1.3-2.7-1.3-4.2c0-2.7,1.1-4,3.4-4c2.2,0,3.3,1.4,3.3,4.1v2.2h6.2V11c0-6.8-3.3-10.6-9.6-10.6c-6.4,0-9.8,3.8-9.8,10.4
		c0,2.5,0.5,4.6,1.6,6.6c1.1,2,3.1,4.1,5.8,6.5c2.2,1.9,3.7,3.5,4.5,4.9c0.8,1.3,1.3,2.8,1.3,4.6c0,2.8-1.1,4.2-3.5,4.2
		c-2.3,0-3.4-1.4-3.4-4.1v-2.9h-6.2V33C72.7,39.8,76,43.6,82.4,43.6z"/>
	<path class="st3" d="M107.9,43V7h6.9V1H94.4v6h6.9v36C101.3,43,107.9,43,107.9,43z"/>
	<path class="st3" d="M117.7,33c0,6.8,3.4,10.6,9.8,10.6s9.8-3.8,9.8-10.6V1H131v32.5c0,2.7-1.1,4.1-3.4,4.1c-2.2,0-3.4-1.4-3.4-4.1
		V1h-6.6L117.7,33L117.7,33z"/>
	<path class="st3" d="M152.1,43c6.5,0,9.8-3.5,9.8-10.4V11.4c0-6.9-3.3-10.4-9.8-10.4h-10.1v42H152.1z M148.7,7h3.4
		c2.2,0,3.4,1.4,3.4,4.1v21.8c0,2.7-1.1,4.1-3.4,4.1h-3.4V7z"/>
	<path class="st3" d="M173,43V1h-6.6v42C166.4,43,173,43,173,43z"/>
	<path class="st3" d="M177.5,33c0,6.7,3.5,10.6,10,10.6c6.5,0,10-3.8,10-10.6V11c0-6.7-3.5-10.6-10-10.6c-6.5,0-10,3.8-10,10.6V33z
		 M190.9,33.5c0,2.8-1.1,4.1-3.4,4.1c-2.3,0-3.4-1.4-3.4-4.1V10.5c0-2.8,1.1-4.1,3.4-4.1c2.3,0,3.4,1.4,3.4,4.1V33.5z"/>
</g>
</svg>
