<?xml version="1.0" encoding="utf-8"?>
<!-- Generator: Adobe Illustrator 28.0.0, SVG Export Plug-In . SVG Version: 6.00 Build 0)  -->
<svg version="1.1" id="圖層_1" xmlns="http://www.w3.org/2000/svg" xmlns:xlink="http://www.w3.org/1999/xlink" x="0px" y="0px"
	 viewBox="0 0 161.9 161.9" style="enable-background:new 0 0 161.9 161.9;" xml:space="preserve">
<style type="text/css">
	.st0{fill:#F5B331;}
	.st1{fill-rule:evenodd;clip-rule:evenodd;fill:#F5B331;}
</style>
<g>
	<g>
		<path class="st0" d="M72.3,14.6h3.5l1.7,18.1l1.7-18.1h4l1.7,18.1l1.7-18.1h3.1l-2.3,23.1h-4.5l-1.7-15.9l-1.7,15.9h-4.8
			L72.3,14.6z"/>
	</g>
	<g>
		<path class="st0" d="M24.2,87.2H20l-0.6,4.5H16l3.8-23.1h4.9l3.8,23.1h-3.6L24.2,87.2z M23.8,84l-1.6-11.7L20.5,84H23.8z"/>
	</g>
	<g>
		<path class="st0" d="M134.6,68.6h5.5c3.6,0,5.4,2,5.4,5.7V86c0,3.7-1.8,5.7-5.4,5.7h-5.5V68.6z M140.1,88.4c1.2,0,1.8-0.6,1.8-2.2
			v-12c0-1.7-0.7-2.2-1.8-2.2h-1.8v16.5h1.8V88.4z"/>
	</g>
	<g>
		<path class="st0" d="M75.6,141.2v-1.3H79v1.6c0,1.7,0.7,2.2,1.9,2.2c1.2,0,1.9-0.6,1.9-2.3c0-1.9-0.8-3.1-3.2-5.2
			c-3-2.7-4.1-4.6-4.1-7.2c0-3.6,1.9-5.7,5.4-5.7s5.3,2.1,5.3,5.8v1h-3.4v-1.2c0-1.7-0.7-2.3-1.8-2.3c-1.2,0-1.8,0.6-1.8,2.2
			c0,1.7,0.8,2.9,3.2,5c3,2.7,4,4.6,4,7.4c0,3.8-1.9,5.9-5.5,5.9S75.6,144.9,75.6,141.2z"/>
	</g>
</g>
<g>
	<g>
		<path class="st1" d="M80.9-0.1c-44.8,0-81,36.2-81,81s36.2,81,81,81s81-36.2,81-81S125.6-0.1,80.9-0.1z M80.9,159.7
			c-43.3,0-78.3-35.3-78.3-78.8S37.7,2.1,80.9,2.1s78.3,35.3,78.3,78.8S124.1,159.7,80.9,159.7z M80.9,60.6
			c-11.2,0-20.2,9.1-20.2,20.2s9.1,20.2,20.2,20.2s20.2-9.1,20.2-20.2S92,60.6,80.9,60.6z"/>
	</g>
</g>
</svg>
