<?xml version="1.0" encoding="utf-8"?>
<!-- Generator: Adobe Illustrator 28.0.0, SVG Export Plug-In . SVG Version: 6.00 Build 0)  -->
<svg version="1.1" id="圖層_1" xmlns="http://www.w3.org/2000/svg" xmlns:xlink="http://www.w3.org/1999/xlink" x="0px" y="0px"
	 viewBox="0 0 59.5 34.1" style="enable-background:new 0 0 59.5 34.1;" xml:space="preserve">
<style type="text/css">
	.st0{fill:#F5B331;}
</style>
<g>
	<g>
		<path class="st0" d="M31.3,18.7c0-0.8-0.7-1.5-1.5-1.5s-1.5,0.7-1.5,1.5s0.7,1.5,1.5,1.5S31.3,19.5,31.3,18.7z M40.3,19.7
			c0-0.3-0.2-0.5-0.5-0.5h-7c-0.3,0-0.5,0.2-0.5,0.5s0.2,0.5,0.5,0.5h7C40.1,20.2,40.3,20,40.3,19.7z M44.3,18.7
			c0-0.8-0.7-1.5-1.5-1.5s-1.5,0.7-1.5,1.5s0.7,1.5,1.5,1.5S44.3,19.5,44.3,18.7z M27,12.2h-2.2c-0.3,0-0.5,0.2-0.5,0.5v0.5
			c0,0.8,0.9,1,1.6,1L27,12.2z M46.3,15.3c-0.8-1.4-1.7-3.2-2.7-4.8c-0.8-1.3-1.4-1.9-2.8-2.2C39.5,8.1,38.2,8,36.3,8
			s-3.2,0.1-4.6,0.3c-1.4,0.2-2,0.9-2.8,2.2c-1,1.6-1.9,3.4-2.7,4.8c-0.7,1.3-1,2.4-1,3.8c0,1.3,0.4,2.4,1,3.8v2.2c0,0.6,0.4,1,1,1
			h1.5c0.6,0,1-0.4,1-1v-1h13v1c0,0.6,0.4,1,1,1h1.5c0.6,0,1-0.4,1-1V23c0.6-1.4,1-2.5,1-3.8C47.3,17.8,47,16.6,46.3,15.3z
			 M30.7,11.6c0.7-1.1,0.9-1.1,1.4-1.2c1.2-0.3,2.4-0.4,4.2-0.4s3,0.1,4.2,0.3c0.5,0.1,0.7,0.1,1.4,1.2c0.4,0.7,0.8,1.4,1.2,2.1
			c-1.5,0.2-4,0.5-6.8,0.5c-3,0-5.5-0.3-6.8-0.6C29.9,12.9,30.3,12.2,30.7,11.6z M42.3,22.2h-12c-1.7,0-3-1.4-3-3
			c0-1.6,0.5-2.4,1.2-3.7c1,0.2,4,0.7,7.8,0.7c3.5,0,6.6-0.5,7.8-0.7c0.7,1.2,1.2,2,1.2,3.6C45.3,20.8,43.9,22.2,42.3,22.2z
			 M47.8,12.2c0.3,0,0.5,0.2,0.5,0.5v0.5c0,0.8-0.9,1-1.6,1l-1.1-2H47.8z"/>
		<path class="st0" d="M15.6,19.6v-2.1l-4.4,4.3l4.4,4.3V24c0,0,7.2-1.2,8.7-7.6C21.1,19.7,15.6,19.6,15.6,19.6z"/>
	</g>
</g>
<g>
	<g>
		<path class="st0" d="M52.3,34.1h-45c-4,0-7.3-3.3-7.3-7.3V7.3C0,3.3,3.3,0,7.3,0h44.9c4,0,7.3,3.3,7.3,7.3v19.5
			C59.6,30.9,56.3,34.1,52.3,34.1z M7.3,1C3.8,1,1,3.8,1,7.3v19.5c0,3.5,2.8,6.3,6.3,6.3h44.9c3.5,0,6.3-2.8,6.3-6.3V7.3
			c0-3.5-2.8-6.3-6.3-6.3H7.3z"/>
	</g>
</g>
</svg>
