<?xml version="1.0" encoding="utf-8"?>
<!-- Generator: Adobe Illustrator 16.0.0, SVG Export Plug-In . SVG Version: 6.00 Build 0)  -->
<!DOCTYPE svg PUBLIC "-//W3C//DTD SVG 1.1//EN" "http://www.w3.org/Graphics/SVG/1.1/DTD/svg11.dtd">
<svg version="1.1" id="圖層_1" xmlns="http://www.w3.org/2000/svg" xmlns:xlink="http://www.w3.org/1999/xlink" x="0px" y="0px"
	 width="96px" height="70px" viewBox="0 0 96 70" enable-background="new 0 0 96 70" xml:space="preserve">
<g>
	<g>
		<path fill-rule="evenodd" clip-rule="evenodd" fill="#FFFFFF" d="M87.785,0H8.214C3.678,0,0,3.678,0,8.214v53.571
			C0,66.322,3.678,70,8.214,70h79.571C92.322,70,96,66.322,96,61.785V8.214C96,3.678,92.322,0,87.785,0z M15.579,55.006
			c-1.98,0-3.585-1.604-3.585-3.583c0-1.979,1.604-3.584,3.585-3.584s3.585,1.604,3.585,3.584
			C19.164,53.401,17.56,55.006,15.579,55.006z M15.579,38.084c-1.98,0-3.585-1.604-3.585-3.584s1.604-3.584,3.585-3.584
			s3.585,1.604,3.585,3.584S17.56,38.084,15.579,38.084z M15.579,21.161c-1.98,0-3.585-1.604-3.585-3.584
			c0-1.979,1.604-3.583,3.585-3.583s3.585,1.604,3.585,3.583C19.164,19.557,17.56,21.161,15.579,21.161z M28.526,55.006
			c-1.98,0-3.585-1.604-3.585-3.583c0-1.979,1.604-3.584,3.585-3.584c1.979,0,3.585,1.604,3.585,3.584
			C32.111,53.401,30.506,55.006,28.526,55.006z M28.526,21.161c-1.98,0-3.585-1.604-3.585-3.584c0-1.979,1.604-3.583,3.585-3.583
			c1.979,0,3.585,1.604,3.585,3.583C32.111,19.557,30.506,21.161,28.526,21.161z M41.474,13.994c1.98,0,3.585,1.604,3.585,3.583
			c0,1.979-1.604,3.584-3.585,3.584s-3.585-1.604-3.585-3.584C37.889,15.599,39.493,13.994,41.474,13.994z M41.579,55.006
			c-1.98,0-3.585-1.604-3.585-3.583c0-1.979,1.604-3.584,3.585-3.584s3.585,1.604,3.585,3.584
			C45.164,53.401,43.56,55.006,41.579,55.006z M54.421,13.994c1.98,0,3.585,1.604,3.585,3.583c0,1.979-1.604,3.584-3.585,3.584
			s-3.585-1.604-3.585-3.584C50.836,15.599,52.44,13.994,54.421,13.994z M54.526,55.006c-1.98,0-3.585-1.604-3.585-3.583
			c0-1.979,1.604-3.584,3.585-3.584c1.979,0,3.585,1.604,3.585,3.584C58.111,53.401,56.506,55.006,54.526,55.006z M67.421,13.994
			c1.98,0,3.585,1.604,3.585,3.583c0,1.979-1.604,3.584-3.585,3.584s-3.585-1.604-3.585-3.584
			C63.836,15.599,65.44,13.994,67.421,13.994z M67.526,55.006c-1.98,0-3.585-1.604-3.585-3.583c0-1.979,1.604-3.584,3.585-3.584
			c1.979,0,3.585,1.604,3.585,3.584C71.111,53.401,69.506,55.006,67.526,55.006z M80.579,55.006c-1.98,0-3.585-1.604-3.585-3.583
			c0-1.979,1.604-3.584,3.585-3.584s3.585,1.604,3.585,3.584C84.164,53.401,82.56,55.006,80.579,55.006z M80.579,38.084
			c-1.98,0-3.585-1.604-3.585-3.584s1.604-3.584,3.585-3.584s3.585,1.604,3.585,3.584S82.56,38.084,80.579,38.084z M80.579,21.161
			c-1.98,0-3.585-1.604-3.585-3.584c0-1.979,1.604-3.583,3.585-3.583s3.585,1.604,3.585,3.583
			C84.164,19.557,82.56,21.161,80.579,21.161z"/>
	</g>
</g>
</svg>
